# xmcd
#
# Track frame offsets:
#	150
#	12577
#	30062
#	45710
#	64047
#	80592
#
# Disc length: 1308 seconds
#
# Revision: 1
# Processed by: cddbd v1.5.1PL0 Copyright (c) Steve Scherf et al.
# Submitted via: CDex 1.50Beta5
#
DISCID=3f051a06
DTITLE=tae - 君を探す
DYEAR=1900
DGENRE=Rock
TTITLE0=彼女
TTITLE1=いくつになっても
TTITLE2=長い夜
TTITLE3=Life Goes On
TTITLE4=愛のかたち
TTITLE5=フォーライフ
EXTD=
EXTT0=
EXTT1=
EXTT2=
EXTT3=
EXTT4=
EXTT5=
PLAYORDER=
